<svg id="SvgjsSvg1000" xmlns="http://www.w3.org/2000/svg" version="1.1" xmlns:xlink="http://www.w3.org/1999/xlink" xmlns:svgjs="http://svgjs.com/svgjs" width="27.86948968831976" height="15.64386570465831"><defs id="SvgjsDefs1001"></defs><path id="SvgjsPath1007" d="M191.45 8807.67C191.45 8807.67 183.82 8802.33 180 8797 " fill-opacity="0" fill="#ffffff" stroke-dasharray="0" stroke-linejoin="miter" stroke-linecap="butt" stroke-opacity="1" stroke="#0899c4" stroke-miterlimit="50" stroke-width="2" transform="matrix(1,0,0,1,-164.8236079970731,-8796.299090952185)"></path><path id="SvgjsPath1008" d="M177 8810.33C177 8810.33 183.36 8807 190.68 8807 " fill-opacity="0" fill="#ffffff" stroke-dasharray="0" stroke-linejoin="miter" stroke-linecap="butt" stroke-opacity="1" stroke="#0899c4" stroke-miterlimit="50" stroke-width="2" transform="matrix(1,0,0,1,-164.8236079970731,-8796.299090952185)"></path><path id="SvgjsPath1009" d="M188.47 8806.68C188.47 8806.68 175.01 8804.41 165 8798 " fill-opacity="0" fill="#ffffff" stroke-dasharray="0" stroke-linejoin="miter" stroke-linecap="butt" stroke-opacity="1" stroke="#0899c4" stroke-miterlimit="50" stroke-width="1" transform="matrix(1,0,0,1,-164.8236079970731,-8796.299090952185)"></path><path id="SvgjsPath1010" d="M191.45 8807.67C191.45 8807.67 183.82 8802.33 180 8797 " fill-opacity="0" fill="#ffffff" stroke-dasharray="0" stroke-linejoin="miter" stroke-linecap="butt" stroke-opacity="1" stroke="#0899c4" stroke-miterlimit="50" stroke-width="2" transform="matrix(1,0,0,1,-164.8236079970731,-8796.299090952185)"></path><path id="SvgjsPath1011" d="M177 8810.33C177 8810.33 183.36 8807 190.68 8807 " fill-opacity="0" fill="#ffffff" stroke-dasharray="0" stroke-linejoin="miter" stroke-linecap="butt" stroke-opacity="1" stroke="#0899c4" stroke-miterlimit="50" stroke-width="2" transform="matrix(1,0,0,1,-164.8236079970731,-8796.299090952185)"></path><path id="SvgjsPath1012" d="M188.47 8806.68C188.47 8806.68 175.01 8804.41 165 8798 " fill-opacity="0" fill="#ffffff" stroke-dasharray="0" stroke-linejoin="miter" stroke-linecap="butt" stroke-opacity="1" stroke="#0899c4" stroke-miterlimit="50" stroke-width="1" transform="matrix(1,0,0,1,-164.8236079970731,-8796.299090952185)"></path></svg>