<svg id="SvgjsSvg1013" xmlns="http://www.w3.org/2000/svg" version="1.1" xmlns:xlink="http://www.w3.org/1999/xlink" xmlns:svgjs="http://svgjs.com/svgjs" width="158.263328163043" height="166.4874404160555"><defs id="SvgjsDefs1014"></defs><path id="SvgjsPath1015" d="M400.21 3897C400.21 3897 387.71 4027.5 556.71 4057 " fill-opacity="0" fill="#ffffff" stroke-dasharray="0" stroke-linejoin="miter" stroke-linecap="butt" stroke-opacity="1" stroke="#0899c4" stroke-miterlimit="50" stroke-width="2" transform="matrix(1,0,0,1,-399.41402193506957,-3896.4597731794447)"></path><path id="SvgjsPath1016" d="M557 4057C557 4057 545 4049 539 4041 " fill-opacity="0" fill="#ffffff" stroke-dasharray="0" stroke-linejoin="miter" stroke-linecap="butt" stroke-opacity="1" stroke="#0899c4" stroke-miterlimit="50" stroke-width="2" transform="matrix(1,0,0,1,-399.41402193506957,-3896.4597731794447)"></path><path id="SvgjsPath1017" d="M535 4062C535 4062 545 4057 556.5 4057 " fill-opacity="0" fill="#ffffff" stroke-dasharray="0" stroke-linejoin="miter" stroke-linecap="butt" stroke-opacity="1" stroke="#0899c4" stroke-miterlimit="50" stroke-width="2" transform="matrix(1,0,0,1,-399.41402193506957,-3896.4597731794447)"></path><path id="SvgjsPath1018" d="M557 4057C557 4057 545 4049 539 4041 " fill-opacity="0" fill="#ffffff" stroke-dasharray="0" stroke-linejoin="miter" stroke-linecap="butt" stroke-opacity="1" stroke="#0899c4" stroke-miterlimit="50" stroke-width="2" transform="matrix(1,0,0,1,-399.41402193506957,-3896.4597731794447)"></path><path id="SvgjsPath1019" d="M535 4062C535 4062 545 4057 556.5 4057 " fill-opacity="0" fill="#ffffff" stroke-dasharray="0" stroke-linejoin="miter" stroke-linecap="butt" stroke-opacity="1" stroke="#0899c4" stroke-miterlimit="50" stroke-width="2" transform="matrix(1,0,0,1,-399.41402193506957,-3896.4597731794447)"></path></svg>