<svg id="SvgjsSvg1078" xmlns="http://www.w3.org/2000/svg" version="1.1" xmlns:xlink="http://www.w3.org/1999/xlink" xmlns:svgjs="http://svgjs.com/svgjs" width="181" height="78"><defs id="SvgjsDefs1079"></defs><path id="SvgjsPath1080" d="M340.47 1637C339.94000000000005 1637 339.51000000000005 1637.42 339.51000000000005 1637.95L287.91 1637.95C287.91 1637.42 287.48 1637 286.96000000000004 1637C286.43000000000006 1637 286.00000000000006 1637.42 286.00000000000006 1637.95L286.00000000000006 1662.54C286.00000000000006 1665.1499999999999 288.14000000000004 1667.27 290.78000000000003 1667.27L336.65000000000003 1667.27C339.28000000000003 1667.27 341.42 1665.15 341.42 1662.54L341.42 1637.95C341.42 1637.42 341 1637 340.47 1637Z " fill="#049dcc" fill-opacity="1" transform="matrix(1,0,0,1,-283,-1591)"></path><path id="SvgjsPath1081" d="M340.34 1627L286.82 1627C284.71 1627 283 1628.7 283 1630.78L283 1636.46C283 1638.55 284.71 1640.24 286.82 1640.24L340.34 1640.24C342.44 1640.24 344.15999999999997 1638.55 344.15999999999997 1636.46L344.15999999999997 1630.78C344.15999999999997 1628.7 342.43999999999994 1627 340.34 1627Z " fill="#ffd100" fill-opacity="1" transform="matrix(1,0,0,1,-283,-1591)"></path><path id="SvgjsPath1082" d="M310 1668L310 1626L318 1626L318 1668Z " fill="#ff4f19" fill-opacity="1" transform="matrix(1,0,0,1,-283,-1591)"></path><path id="SvgjsPath1083" d="M310 1655.68L317.64 1663.24L317.64 1660.57L310 1653Z " fill="#e7001e" fill-opacity="1" transform="matrix(1,0,0,1,-283,-1591)"></path><path id="SvgjsPath1084" d="M310 1650.68L317.64 1658.24L317.64 1655.57L310 1648Z " fill="#e7001e" fill-opacity="1" transform="matrix(1,0,0,1,-283,-1591)"></path><path id="SvgjsPath1085" d="M317.64 1634.9L317.64 1632.23L311.34999999999997 1626L309.99999999999994 1626L309.99999999999994 1627.34Z " fill="#e7001e" fill-opacity="1" transform="matrix(1,0,0,1,-283,-1591)"></path><path id="SvgjsPath1086" d="M310 1645.68L317.64 1653.24L317.64 1650.57L310 1643Z " fill="#e7001e" fill-opacity="1" transform="matrix(1,0,0,1,-283,-1591)"></path><path id="SvgjsPath1087" d="M310 1658L310 1660.68L317.25 1667.8500000000001L317.64 1667.8500000000001L317.64 1665.5700000000002Z " fill="#e7001e" fill-opacity="1" transform="matrix(1,0,0,1,-283,-1591)"></path><path id="SvgjsPath1088" d="M310 1641.68L317.64 1649.24L317.64 1646.57L310 1639Z " fill="#e7001e" fill-opacity="1" transform="matrix(1,0,0,1,-283,-1591)"></path><path id="SvgjsPath1089" d="M310 1631.68L317.64 1639.24L317.64 1636.57L310 1629Z " fill="#e7001e" fill-opacity="1" transform="matrix(1,0,0,1,-283,-1591)"></path><path id="SvgjsPath1090" d="M315.17 1667.12L310 1662L310 1664.68L312.47 1667.1200000000001Z " fill="#e7001e" fill-opacity="1" transform="matrix(1,0,0,1,-283,-1591)"></path><path id="SvgjsPath1091" d="M310 1636.68L317.64 1644.24L317.64 1641.57L310 1634Z " fill="#e7001e" fill-opacity="1" transform="matrix(1,0,0,1,-283,-1591)"></path><path id="SvgjsPath1092" d="M310 1655.68L317.64 1663.24L317.64 1660.57L310 1653Z " fill="#e7001e" fill-opacity="1" transform="matrix(1,0,0,1,-283,-1591)"></path><path id="SvgjsPath1093" d="M310 1650.68L317.64 1658.24L317.64 1655.57L310 1648Z " fill="#e7001e" fill-opacity="1" transform="matrix(1,0,0,1,-283,-1591)"></path><path id="SvgjsPath1094" d="M317.64 1634.9L317.64 1632.23L311.34999999999997 1626L309.99999999999994 1626L309.99999999999994 1627.34Z " fill="#e7001e" fill-opacity="1" transform="matrix(1,0,0,1,-283,-1591)"></path><path id="SvgjsPath1095" d="M310 1645.68L317.64 1653.24L317.64 1650.57L310 1643Z " fill="#e7001e" fill-opacity="1" transform="matrix(1,0,0,1,-283,-1591)"></path><path id="SvgjsPath1096" d="M310 1658L310 1660.68L317.25 1667.8500000000001L317.64 1667.8500000000001L317.64 1665.5700000000002Z " fill="#e7001e" fill-opacity="1" transform="matrix(1,0,0,1,-283,-1591)"></path><path id="SvgjsPath1097" d="M310 1641.68L317.64 1649.24L317.64 1646.57L310 1639Z " fill="#e7001e" fill-opacity="1" transform="matrix(1,0,0,1,-283,-1591)"></path><path id="SvgjsPath1098" d="M310 1631.68L317.64 1639.24L317.64 1636.57L310 1629Z " fill="#e7001e" fill-opacity="1" transform="matrix(1,0,0,1,-283,-1591)"></path><path id="SvgjsPath1099" d="M315.17 1667.12L310 1662L310 1664.68L312.47 1667.1200000000001Z " fill="#e7001e" fill-opacity="1" transform="matrix(1,0,0,1,-283,-1591)"></path><path id="SvgjsPath1100" d="M310 1636.68L317.64 1644.24L317.64 1641.57L310 1634Z " fill="#e7001e" fill-opacity="1" transform="matrix(1,0,0,1,-283,-1591)"></path><path id="SvgjsPath1101" d="M325.42 1634.39C323.83000000000004 1631.6000000000001 322.19 1628.74 319.82 1627.5300000000002C324.32 1625.7900000000002 329.98 1623.39 331.67 1621.7200000000003C334.83000000000004 1618.5900000000001 334.83000000000004 1613.4900000000002 331.67 1610.3500000000004C328.5 1607.2200000000003 323.35 1607.2200000000003 320.18 1610.3500000000004C318.21 1612.3000000000004 315.24 1619.6000000000004 313.5 1624.1800000000003C311.76 1619.6000000000004 308.79 1612.3000000000002 306.82 1610.3500000000004C303.65 1607.2200000000003 298.5 1607.2200000000003 295.33 1610.3500000000004C292.16999999999996 1613.4900000000005 292.16999999999996 1618.5900000000004 295.33 1621.7200000000003C297.02 1623.3900000000003 302.68 1625.7900000000002 307.18 1627.5300000000002C304.81 1628.7400000000002 303.17 1631.6000000000001 301.58 1634.39C299.43 1638.16 297.21 1642.0500000000002 293.43 1642.0500000000002C292.64 1642.0500000000002 292 1642.6800000000003 292 1643.4700000000003C292 1644.2500000000002 292.64 1644.8900000000003 293.43 1644.8900000000003C298.88 1644.8900000000003 301.64 1640.0500000000004 304.08 1635.7900000000004C305.84999999999997 1632.6800000000005 307.52 1629.7500000000005 309.68 1629.7500000000005L309.68 1629.7600000000004L317.32 1629.7600000000004L317.32 1629.7500000000005C319.48 1629.7500000000005 321.15 1632.6800000000005 322.93 1635.7900000000004C325.36 1640.0500000000004 328.12 1644.8900000000003 333.57 1644.8900000000003C334.36 1644.8900000000003 335 1644.2500000000002 335 1643.4700000000003C335 1642.6800000000003 334.36 1642.0500000000002 333.57 1642.0500000000002C329.8 1642.0500000000002 327.57 1638.16 325.42 1634.39ZM325.92 1610.84C327.27000000000004 1610.84 328.62 1611.34 329.64000000000004 1612.36C331.69000000000005 1614.3899999999999 331.69000000000005 1617.6899999999998 329.64000000000004 1619.7199999999998C328.18000000000006 1621.1599999999999 321.31000000000006 1623.9799999999998 315.89000000000004 1625.9699999999998C317.90000000000003 1620.61 320.75000000000006 1613.7999999999997 322.21000000000004 1612.36C323.23 1611.34 324.58000000000004 1610.84 325.92 1610.84ZM301.08 1610.84C302.41999999999996 1610.84 303.77 1611.34 304.78999999999996 1612.36C306.24999999999994 1613.8 309.09999999999997 1620.61 311.11999999999995 1625.9699999999998C305.69999999999993 1623.9799999999998 298.81999999999994 1621.1599999999999 297.35999999999996 1619.7199999999998C295.30999999999995 1617.6899999999998 295.30999999999995 1614.3899999999999 297.35999999999996 1612.36C298.38999999999993 1611.34 299.72999999999996 1610.84 301.08 1610.84Z " fill="#e7001e" fill-opacity="1" transform="matrix(1,0,0,1,-283,-1591)"></path><path id="SvgjsPath1102" d="M340.47 1637C339.94000000000005 1637 339.51000000000005 1637.42 339.51000000000005 1637.95L287.91 1637.95C287.91 1637.42 287.48 1637 286.96000000000004 1637C286.43000000000006 1637 286.00000000000006 1637.42 286.00000000000006 1637.95L286.00000000000006 1662.54C286.00000000000006 1665.1499999999999 288.14000000000004 1667.27 290.78000000000003 1667.27L336.65000000000003 1667.27C339.28000000000003 1667.27 341.42 1665.15 341.42 1662.54L341.42 1637.95C341.42 1637.42 341 1637 340.47 1637Z " fill="#049dcc" fill-opacity="1" transform="matrix(1,0,0,1,-283,-1591)"></path><path id="SvgjsPath1103" d="M340.34 1627L286.82 1627C284.71 1627 283 1628.7 283 1630.78L283 1636.46C283 1638.55 284.71 1640.24 286.82 1640.24L340.34 1640.24C342.44 1640.24 344.15999999999997 1638.55 344.15999999999997 1636.46L344.15999999999997 1630.78C344.15999999999997 1628.7 342.43999999999994 1627 340.34 1627Z " fill="#ffd100" fill-opacity="1" transform="matrix(1,0,0,1,-283,-1591)"></path><path id="SvgjsPath1104" d="M310 1668L310 1626L318 1626L318 1668Z " fill="#ff4f19" fill-opacity="1" transform="matrix(1,0,0,1,-283,-1591)"></path><path id="SvgjsPath1105" d="M310 1655.68L317.64 1663.24L317.64 1660.57L310 1653Z " fill="#e7001e" fill-opacity="1" transform="matrix(1,0,0,1,-283,-1591)"></path><path id="SvgjsPath1106" d="M310 1650.68L317.64 1658.24L317.64 1655.57L310 1648Z " fill="#e7001e" fill-opacity="1" transform="matrix(1,0,0,1,-283,-1591)"></path><path id="SvgjsPath1107" d="M317.64 1634.9L317.64 1632.23L311.34999999999997 1626L309.99999999999994 1626L309.99999999999994 1627.34Z " fill="#e7001e" fill-opacity="1" transform="matrix(1,0,0,1,-283,-1591)"></path><path id="SvgjsPath1108" d="M310 1645.68L317.64 1653.24L317.64 1650.57L310 1643Z " fill="#e7001e" fill-opacity="1" transform="matrix(1,0,0,1,-283,-1591)"></path><path id="SvgjsPath1109" d="M310 1658L310 1660.68L317.25 1667.8500000000001L317.64 1667.8500000000001L317.64 1665.5700000000002Z " fill="#e7001e" fill-opacity="1" transform="matrix(1,0,0,1,-283,-1591)"></path><path id="SvgjsPath1110" d="M310 1641.68L317.64 1649.24L317.64 1646.57L310 1639Z " fill="#e7001e" fill-opacity="1" transform="matrix(1,0,0,1,-283,-1591)"></path><path id="SvgjsPath1111" d="M310 1631.68L317.64 1639.24L317.64 1636.57L310 1629Z " fill="#e7001e" fill-opacity="1" transform="matrix(1,0,0,1,-283,-1591)"></path><path id="SvgjsPath1112" d="M315.17 1667.12L310 1662L310 1664.68L312.47 1667.1200000000001Z " fill="#e7001e" fill-opacity="1" transform="matrix(1,0,0,1,-283,-1591)"></path><path id="SvgjsPath1113" d="M310 1636.68L317.64 1644.24L317.64 1641.57L310 1634Z " fill="#e7001e" fill-opacity="1" transform="matrix(1,0,0,1,-283,-1591)"></path><path id="SvgjsPath1114" d="M325.42 1634.39C323.83000000000004 1631.6000000000001 322.19 1628.74 319.82 1627.5300000000002C324.32 1625.7900000000002 329.98 1623.39 331.67 1621.7200000000003C334.83000000000004 1618.5900000000001 334.83000000000004 1613.4900000000002 331.67 1610.3500000000004C328.5 1607.2200000000003 323.35 1607.2200000000003 320.18 1610.3500000000004C318.21 1612.3000000000004 315.24 1619.6000000000004 313.5 1624.1800000000003C311.76 1619.6000000000004 308.79 1612.3000000000002 306.82 1610.3500000000004C303.65 1607.2200000000003 298.5 1607.2200000000003 295.33 1610.3500000000004C292.16999999999996 1613.4900000000005 292.16999999999996 1618.5900000000004 295.33 1621.7200000000003C297.02 1623.3900000000003 302.68 1625.7900000000002 307.18 1627.5300000000002C304.81 1628.7400000000002 303.17 1631.6000000000001 301.58 1634.39C299.43 1638.16 297.21 1642.0500000000002 293.43 1642.0500000000002C292.64 1642.0500000000002 292 1642.6800000000003 292 1643.4700000000003C292 1644.2500000000002 292.64 1644.8900000000003 293.43 1644.8900000000003C298.88 1644.8900000000003 301.64 1640.0500000000004 304.08 1635.7900000000004C305.84999999999997 1632.6800000000005 307.52 1629.7500000000005 309.68 1629.7500000000005L309.68 1629.7600000000004L317.32 1629.7600000000004L317.32 1629.7500000000005C319.48 1629.7500000000005 321.15 1632.6800000000005 322.93 1635.7900000000004C325.36 1640.0500000000004 328.12 1644.8900000000003 333.57 1644.8900000000003C334.36 1644.8900000000003 335 1644.2500000000002 335 1643.4700000000003C335 1642.6800000000003 334.36 1642.0500000000002 333.57 1642.0500000000002C329.8 1642.0500000000002 327.57 1638.16 325.42 1634.39ZM325.92 1610.84C327.27000000000004 1610.84 328.62 1611.34 329.64000000000004 1612.36C331.69000000000005 1614.3899999999999 331.69000000000005 1617.6899999999998 329.64000000000004 1619.7199999999998C328.18000000000006 1621.1599999999999 321.31000000000006 1623.9799999999998 315.89000000000004 1625.9699999999998C317.90000000000003 1620.61 320.75000000000006 1613.7999999999997 322.21000000000004 1612.36C323.23 1611.34 324.58000000000004 1610.84 325.92 1610.84ZM301.08 1610.84C302.41999999999996 1610.84 303.77 1611.34 304.78999999999996 1612.36C306.24999999999994 1613.8 309.09999999999997 1620.61 311.11999999999995 1625.9699999999998C305.69999999999993 1623.9799999999998 298.81999999999994 1621.1599999999999 297.35999999999996 1619.7199999999998C295.30999999999995 1617.6899999999998 295.30999999999995 1614.3899999999999 297.35999999999996 1612.36C298.38999999999993 1611.34 299.72999999999996 1610.84 301.08 1610.84Z " fill="#e7001e" fill-opacity="1" transform="matrix(1,0,0,1,-283,-1591)"></path><path id="SvgjsPath1115" d="M340.47 1637C339.94000000000005 1637 339.51000000000005 1637.42 339.51000000000005 1637.95L287.91 1637.95C287.91 1637.42 287.48 1637 286.96000000000004 1637C286.43000000000006 1637 286.00000000000006 1637.42 286.00000000000006 1637.95L286.00000000000006 1662.54C286.00000000000006 1665.1499999999999 288.14000000000004 1667.27 290.78000000000003 1667.27L336.65000000000003 1667.27C339.28000000000003 1667.27 341.42 1665.15 341.42 1662.54L341.42 1637.95C341.42 1637.42 341 1637 340.47 1637Z " fill="#049dcc" fill-opacity="1" transform="matrix(1,0,0,1,-283,-1591)"></path><path id="SvgjsPath1116" d="M340.34 1627L286.82 1627C284.71 1627 283 1628.7 283 1630.78L283 1636.46C283 1638.55 284.71 1640.24 286.82 1640.24L340.34 1640.24C342.44 1640.24 344.15999999999997 1638.55 344.15999999999997 1636.46L344.15999999999997 1630.78C344.15999999999997 1628.7 342.43999999999994 1627 340.34 1627Z " fill="#ffd100" fill-opacity="1" transform="matrix(1,0,0,1,-283,-1591)"></path><path id="SvgjsPath1117" d="M310 1668L310 1626L318 1626L318 1668Z " fill="#ff4f19" fill-opacity="1" transform="matrix(1,0,0,1,-283,-1591)"></path><path id="SvgjsPath1118" d="M310 1655.68L317.64 1663.24L317.64 1660.57L310 1653Z " fill="#e7001e" fill-opacity="1" transform="matrix(1,0,0,1,-283,-1591)"></path><path id="SvgjsPath1119" d="M310 1650.68L317.64 1658.24L317.64 1655.57L310 1648Z " fill="#e7001e" fill-opacity="1" transform="matrix(1,0,0,1,-283,-1591)"></path><path id="SvgjsPath1120" d="M317.64 1634.9L317.64 1632.23L311.34999999999997 1626L309.99999999999994 1626L309.99999999999994 1627.34Z " fill="#e7001e" fill-opacity="1" transform="matrix(1,0,0,1,-283,-1591)"></path><path id="SvgjsPath1121" d="M310 1645.68L317.64 1653.24L317.64 1650.57L310 1643Z " fill="#e7001e" fill-opacity="1" transform="matrix(1,0,0,1,-283,-1591)"></path><path id="SvgjsPath1122" d="M310 1658L310 1660.68L317.25 1667.8500000000001L317.64 1667.8500000000001L317.64 1665.5700000000002Z " fill="#e7001e" fill-opacity="1" transform="matrix(1,0,0,1,-283,-1591)"></path><path id="SvgjsPath1123" d="M310 1641.68L317.64 1649.24L317.64 1646.57L310 1639Z " fill="#e7001e" fill-opacity="1" transform="matrix(1,0,0,1,-283,-1591)"></path><path id="SvgjsPath1124" d="M310 1631.68L317.64 1639.24L317.64 1636.57L310 1629Z " fill="#e7001e" fill-opacity="1" transform="matrix(1,0,0,1,-283,-1591)"></path><path id="SvgjsPath1125" d="M315.17 1667.12L310 1662L310 1664.68L312.47 1667.1200000000001Z " fill="#e7001e" fill-opacity="1" transform="matrix(1,0,0,1,-283,-1591)"></path><path id="SvgjsPath1126" d="M310 1636.68L317.64 1644.24L317.64 1641.57L310 1634Z " fill="#e7001e" fill-opacity="1" transform="matrix(1,0,0,1,-283,-1591)"></path><path id="SvgjsPath1127" d="M325.42 1634.39C323.83000000000004 1631.6000000000001 322.19 1628.74 319.82 1627.5300000000002C324.32 1625.7900000000002 329.98 1623.39 331.67 1621.7200000000003C334.83000000000004 1618.5900000000001 334.83000000000004 1613.4900000000002 331.67 1610.3500000000004C328.5 1607.2200000000003 323.35 1607.2200000000003 320.18 1610.3500000000004C318.21 1612.3000000000004 315.24 1619.6000000000004 313.5 1624.1800000000003C311.76 1619.6000000000004 308.79 1612.3000000000002 306.82 1610.3500000000004C303.65 1607.2200000000003 298.5 1607.2200000000003 295.33 1610.3500000000004C292.16999999999996 1613.4900000000005 292.16999999999996 1618.5900000000004 295.33 1621.7200000000003C297.02 1623.3900000000003 302.68 1625.7900000000002 307.18 1627.5300000000002C304.81 1628.7400000000002 303.17 1631.6000000000001 301.58 1634.39C299.43 1638.16 297.21 1642.0500000000002 293.43 1642.0500000000002C292.64 1642.0500000000002 292 1642.6800000000003 292 1643.4700000000003C292 1644.2500000000002 292.64 1644.8900000000003 293.43 1644.8900000000003C298.88 1644.8900000000003 301.64 1640.0500000000004 304.08 1635.7900000000004C305.84999999999997 1632.6800000000005 307.52 1629.7500000000005 309.68 1629.7500000000005L309.68 1629.7600000000004L317.32 1629.7600000000004L317.32 1629.7500000000005C319.48 1629.7500000000005 321.15 1632.6800000000005 322.93 1635.7900000000004C325.36 1640.0500000000004 328.12 1644.8900000000003 333.57 1644.8900000000003C334.36 1644.8900000000003 335 1644.2500000000002 335 1643.4700000000003C335 1642.6800000000003 334.36 1642.0500000000002 333.57 1642.0500000000002C329.8 1642.0500000000002 327.57 1638.16 325.42 1634.39ZM325.92 1610.84C327.27000000000004 1610.84 328.62 1611.34 329.64000000000004 1612.36C331.69000000000005 1614.3899999999999 331.69000000000005 1617.6899999999998 329.64000000000004 1619.7199999999998C328.18000000000006 1621.1599999999999 321.31000000000006 1623.9799999999998 315.89000000000004 1625.9699999999998C317.90000000000003 1620.61 320.75000000000006 1613.7999999999997 322.21000000000004 1612.36C323.23 1611.34 324.58000000000004 1610.84 325.92 1610.84ZM301.08 1610.84C302.41999999999996 1610.84 303.77 1611.34 304.78999999999996 1612.36C306.24999999999994 1613.8 309.09999999999997 1620.61 311.11999999999995 1625.9699999999998C305.69999999999993 1623.9799999999998 298.81999999999994 1621.1599999999999 297.35999999999996 1619.7199999999998C295.30999999999995 1617.6899999999998 295.30999999999995 1614.3899999999999 297.35999999999996 1612.36C298.38999999999993 1611.34 299.72999999999996 1610.84 301.08 1610.84Z " fill="#e7001e" fill-opacity="1" transform="matrix(1,0,0,1,-283,-1591)"></path><path id="SvgjsPath1128" d="M340.47 1637C339.94000000000005 1637 339.51000000000005 1637.42 339.51000000000005 1637.95L287.91 1637.95C287.91 1637.42 287.48 1637 286.96000000000004 1637C286.43000000000006 1637 286.00000000000006 1637.42 286.00000000000006 1637.95L286.00000000000006 1662.54C286.00000000000006 1665.1499999999999 288.14000000000004 1667.27 290.78000000000003 1667.27L336.65000000000003 1667.27C339.28000000000003 1667.27 341.42 1665.15 341.42 1662.54L341.42 1637.95C341.42 1637.42 341 1637 340.47 1637Z " fill="#049dcc" fill-opacity="1" transform="matrix(1,0,0,1,-283,-1591)"></path><path id="SvgjsPath1129" d="M340.34 1627L286.82 1627C284.71 1627 283 1628.7 283 1630.78L283 1636.46C283 1638.55 284.71 1640.24 286.82 1640.24L340.34 1640.24C342.44 1640.24 344.15999999999997 1638.55 344.15999999999997 1636.46L344.15999999999997 1630.78C344.15999999999997 1628.7 342.43999999999994 1627 340.34 1627Z " fill="#ffd100" fill-opacity="1" transform="matrix(1,0,0,1,-283,-1591)"></path><path id="SvgjsPath1130" d="M310 1668L310 1626L318 1626L318 1668Z " fill="#ff4f19" fill-opacity="1" transform="matrix(1,0,0,1,-283,-1591)"></path><path id="SvgjsPath1131" d="M310 1655.68L317.64 1663.24L317.64 1660.57L310 1653Z " fill="#e7001e" fill-opacity="1" transform="matrix(1,0,0,1,-283,-1591)"></path><path id="SvgjsPath1132" d="M310 1650.68L317.64 1658.24L317.64 1655.57L310 1648Z " fill="#e7001e" fill-opacity="1" transform="matrix(1,0,0,1,-283,-1591)"></path><path id="SvgjsPath1133" d="M317.64 1634.9L317.64 1632.23L311.34999999999997 1626L309.99999999999994 1626L309.99999999999994 1627.34Z " fill="#e7001e" fill-opacity="1" transform="matrix(1,0,0,1,-283,-1591)"></path><path id="SvgjsPath1134" d="M310 1645.68L317.64 1653.24L317.64 1650.57L310 1643Z " fill="#e7001e" fill-opacity="1" transform="matrix(1,0,0,1,-283,-1591)"></path><path id="SvgjsPath1135" d="M310 1658L310 1660.68L317.25 1667.8500000000001L317.64 1667.8500000000001L317.64 1665.5700000000002Z " fill="#e7001e" fill-opacity="1" transform="matrix(1,0,0,1,-283,-1591)"></path><path id="SvgjsPath1136" d="M310 1641.68L317.64 1649.24L317.64 1646.57L310 1639Z " fill="#e7001e" fill-opacity="1" transform="matrix(1,0,0,1,-283,-1591)"></path><path id="SvgjsPath1137" d="M310 1631.68L317.64 1639.24L317.64 1636.57L310 1629Z " fill="#e7001e" fill-opacity="1" transform="matrix(1,0,0,1,-283,-1591)"></path><path id="SvgjsPath1138" d="M315.17 1667.12L310 1662L310 1664.68L312.47 1667.1200000000001Z " fill="#e7001e" fill-opacity="1" transform="matrix(1,0,0,1,-283,-1591)"></path><path id="SvgjsPath1139" d="M310 1636.68L317.64 1644.24L317.64 1641.57L310 1634Z " fill="#e7001e" fill-opacity="1" transform="matrix(1,0,0,1,-283,-1591)"></path><path id="SvgjsPath1140" d="M325.42 1634.39C323.83000000000004 1631.6000000000001 322.19 1628.74 319.82 1627.5300000000002C324.32 1625.7900000000002 329.98 1623.39 331.67 1621.7200000000003C334.83000000000004 1618.5900000000001 334.83000000000004 1613.4900000000002 331.67 1610.3500000000004C328.5 1607.2200000000003 323.35 1607.2200000000003 320.18 1610.3500000000004C318.21 1612.3000000000004 315.24 1619.6000000000004 313.5 1624.1800000000003C311.76 1619.6000000000004 308.79 1612.3000000000002 306.82 1610.3500000000004C303.65 1607.2200000000003 298.5 1607.2200000000003 295.33 1610.3500000000004C292.16999999999996 1613.4900000000005 292.16999999999996 1618.5900000000004 295.33 1621.7200000000003C297.02 1623.3900000000003 302.68 1625.7900000000002 307.18 1627.5300000000002C304.81 1628.7400000000002 303.17 1631.6000000000001 301.58 1634.39C299.43 1638.16 297.21 1642.0500000000002 293.43 1642.0500000000002C292.64 1642.0500000000002 292 1642.6800000000003 292 1643.4700000000003C292 1644.2500000000002 292.64 1644.8900000000003 293.43 1644.8900000000003C298.88 1644.8900000000003 301.64 1640.0500000000004 304.08 1635.7900000000004C305.84999999999997 1632.6800000000005 307.52 1629.7500000000005 309.68 1629.7500000000005L309.68 1629.7600000000004L317.32 1629.7600000000004L317.32 1629.7500000000005C319.48 1629.7500000000005 321.15 1632.6800000000005 322.93 1635.7900000000004C325.36 1640.0500000000004 328.12 1644.8900000000003 333.57 1644.8900000000003C334.36 1644.8900000000003 335 1644.2500000000002 335 1643.4700000000003C335 1642.6800000000003 334.36 1642.0500000000002 333.57 1642.0500000000002C329.8 1642.0500000000002 327.57 1638.16 325.42 1634.39ZM325.92 1610.84C327.27000000000004 1610.84 328.62 1611.34 329.64000000000004 1612.36C331.69000000000005 1614.3899999999999 331.69000000000005 1617.6899999999998 329.64000000000004 1619.7199999999998C328.18000000000006 1621.1599999999999 321.31000000000006 1623.9799999999998 315.89000000000004 1625.9699999999998C317.90000000000003 1620.61 320.75000000000006 1613.7999999999997 322.21000000000004 1612.36C323.23 1611.34 324.58000000000004 1610.84 325.92 1610.84ZM301.08 1610.84C302.41999999999996 1610.84 303.77 1611.34 304.78999999999996 1612.36C306.24999999999994 1613.8 309.09999999999997 1620.61 311.11999999999995 1625.9699999999998C305.69999999999993 1623.9799999999998 298.81999999999994 1621.1599999999999 297.35999999999996 1619.7199999999998C295.30999999999995 1617.6899999999998 295.30999999999995 1614.3899999999999 297.35999999999996 1612.36C298.38999999999993 1611.34 299.72999999999996 1610.84 301.08 1610.84Z " fill="#e7001e" fill-opacity="1" transform="matrix(1,0,0,1,-283,-1591)"></path><path id="SvgjsPath1141" d="M413.32 1619.08C415.01 1619.08 416.65999999999997 1619.08 417.99 1619.08C425.72 1619.08 431.98 1612.79 431.98 1605.04C431.98 1597.29 425.72 1591 417.99 1591C410.26 1591 403.99 1597.29 403.99 1605.04C403.99 1597.29 397.73 1591 390 1591C382.27 1591 376 1597.29 376 1605.04C376 1612.79 382.27 1619.08 390 1619.08C391.32 1619.08 392.97 1619.08 394.66 1619.08C399.16 1619.08 403.99 1619.08 403.99 1619.08C403.99 1619.08 408.82 1619.08 413.32 1619.08ZM417.99 1600.36C420.56 1600.36 422.65000000000003 1602.4599999999998 422.65000000000003 1605.04C422.65000000000003 1607.62 420.56000000000006 1609.72 417.99 1609.72L413.32 1609.72L413.32 1605.04C413.32 1602.46 415.42 1600.36 417.99 1600.36ZM390 1600.36C392.57 1600.36 394.66 1602.4599999999998 394.66 1605.04L394.66 1609.72L390 1609.72C387.42 1609.72 385.33 1607.6200000000001 385.33 1605.04C385.33 1602.46 387.41999999999996 1600.36 390 1600.36Z " fill="#af0707" fill-opacity="1" transform="matrix(1,0,0,1,-283,-1591)"></path><path id="SvgjsPath1142" d="M355 1669L355 1644L371 1644L371 1669Z " fill="#049dcc" fill-opacity="1" transform="matrix(1,0,0,1,-283,-1591)"></path><path id="SvgjsPath1143" d="M389 1669L389 1644L408 1644L408 1669Z " fill="#049dcc" fill-opacity="1" transform="matrix(1,0,0,1,-283,-1591)"></path><path id="SvgjsPath1144" d="M370.66 1637.72L370.66 1619C368.97 1619 367.32000000000005 1619 366 1619L352 1619L352 1643.96L355.11 1643.96L370.66 1643.96Z " fill="#e7001e" fill-opacity="1" transform="matrix(1,0,0,1,-283,-1591)"></path><path id="SvgjsPath1145" d="M389 1637.72L389 1643.96L407.66 1643.96L407.66 1619L393.67 1619C392.34000000000003 1619 390.69 1619 389 1619Z " fill="#e7001d" fill-opacity="1" transform="matrix(1,0,0,1,-283,-1591)"></path><path id="SvgjsPath1146" d="M408 1669L408 1644L461 1644L461 1669Z " fill="#0082aa" fill-opacity="1" transform="matrix(1,0,0,1,-283,-1591)"></path><path id="SvgjsPath1147" d="M408 1619L408 1643.96L460.87 1643.96L463.98 1643.96L463.98 1619Z " fill="#b50018" fill-opacity="1" transform="matrix(1,0,0,1,-283,-1591)"></path><path id="SvgjsPath1148" d="M379.33 1628L370 1637.36L370 1643.6L388.66 1643.6L388.66 1637.36Z " fill="#ff9811" fill-opacity="1" transform="matrix(1,0,0,1,-283,-1591)"></path><path id="SvgjsPath1149" d="M370 1669L370 1644L389 1644L389 1669Z " fill="#ffda44" fill-opacity="1" transform="matrix(1,0,0,1,-283,-1591)"></path><path id="SvgjsPath1150" d="M388.66 1637.72L388.66 1619C384.16 1619 379.33000000000004 1619 379.33000000000004 1619C379.33000000000004 1619 374.50000000000006 1619 370.00000000000006 1619L370.00000000000006 1637.72L379.33000000000004 1628.3600000000001Z " fill="#ddb708" fill-opacity="1" transform="matrix(1,0,0,1,-283,-1591)"></path><path id="SvgjsPath1151" d="M413.32 1619.08C415.01 1619.08 416.65999999999997 1619.08 417.99 1619.08C425.72 1619.08 431.98 1612.79 431.98 1605.04C431.98 1597.29 425.72 1591 417.99 1591C410.26 1591 403.99 1597.29 403.99 1605.04C403.99 1597.29 397.73 1591 390 1591C382.27 1591 376 1597.29 376 1605.04C376 1612.79 382.27 1619.08 390 1619.08C391.32 1619.08 392.97 1619.08 394.66 1619.08C399.16 1619.08 403.99 1619.08 403.99 1619.08C403.99 1619.08 408.82 1619.08 413.32 1619.08ZM417.99 1600.36C420.56 1600.36 422.65000000000003 1602.4599999999998 422.65000000000003 1605.04C422.65000000000003 1607.62 420.56000000000006 1609.72 417.99 1609.72L413.32 1609.72L413.32 1605.04C413.32 1602.46 415.42 1600.36 417.99 1600.36ZM390 1600.36C392.57 1600.36 394.66 1602.4599999999998 394.66 1605.04L394.66 1609.72L390 1609.72C387.42 1609.72 385.33 1607.6200000000001 385.33 1605.04C385.33 1602.46 387.41999999999996 1600.36 390 1600.36Z " fill="#af0707" fill-opacity="1" transform="matrix(1,0,0,1,-283,-1591)"></path><path id="SvgjsPath1152" d="M355 1669L355 1644L371 1644L371 1669Z " fill="#049dcc" fill-opacity="1" transform="matrix(1,0,0,1,-283,-1591)"></path><path id="SvgjsPath1153" d="M389 1669L389 1644L408 1644L408 1669Z " fill="#049dcc" fill-opacity="1" transform="matrix(1,0,0,1,-283,-1591)"></path><path id="SvgjsPath1154" d="M370.66 1637.72L370.66 1619C368.97 1619 367.32000000000005 1619 366 1619L352 1619L352 1643.96L355.11 1643.96L370.66 1643.96Z " fill="#e7001e" fill-opacity="1" transform="matrix(1,0,0,1,-283,-1591)"></path><path id="SvgjsPath1155" d="M389 1637.72L389 1643.96L407.66 1643.96L407.66 1619L393.67 1619C392.34000000000003 1619 390.69 1619 389 1619Z " fill="#e7001d" fill-opacity="1" transform="matrix(1,0,0,1,-283,-1591)"></path><path id="SvgjsPath1156" d="M408 1669L408 1644L461 1644L461 1669Z " fill="#0082aa" fill-opacity="1" transform="matrix(1,0,0,1,-283,-1591)"></path><path id="SvgjsPath1157" d="M408 1619L408 1643.96L460.87 1643.96L463.98 1643.96L463.98 1619Z " fill="#b50018" fill-opacity="1" transform="matrix(1,0,0,1,-283,-1591)"></path><path id="SvgjsPath1158" d="M379.33 1628L370 1637.36L370 1643.6L388.66 1643.6L388.66 1637.36Z " fill="#ff9811" fill-opacity="1" transform="matrix(1,0,0,1,-283,-1591)"></path><path id="SvgjsPath1159" d="M370 1669L370 1644L389 1644L389 1669Z " fill="#ffda44" fill-opacity="1" transform="matrix(1,0,0,1,-283,-1591)"></path><path id="SvgjsPath1160" d="M388.66 1637.72L388.66 1619C384.16 1619 379.33000000000004 1619 379.33000000000004 1619C379.33000000000004 1619 374.50000000000006 1619 370.00000000000006 1619L370.00000000000006 1637.72L379.33000000000004 1628.3600000000001Z " fill="#ddb708" fill-opacity="1" transform="matrix(1,0,0,1,-283,-1591)"></path><path id="SvgjsPath1161" d="M413.32 1619.08C415.01 1619.08 416.65999999999997 1619.08 417.99 1619.08C425.72 1619.08 431.98 1612.79 431.98 1605.04C431.98 1597.29 425.72 1591 417.99 1591C410.26 1591 403.99 1597.29 403.99 1605.04C403.99 1597.29 397.73 1591 390 1591C382.27 1591 376 1597.29 376 1605.04C376 1612.79 382.27 1619.08 390 1619.08C391.32 1619.08 392.97 1619.08 394.66 1619.08C399.16 1619.08 403.99 1619.08 403.99 1619.08C403.99 1619.08 408.82 1619.08 413.32 1619.08ZM417.99 1600.36C420.56 1600.36 422.65000000000003 1602.4599999999998 422.65000000000003 1605.04C422.65000000000003 1607.62 420.56000000000006 1609.72 417.99 1609.72L413.32 1609.72L413.32 1605.04C413.32 1602.46 415.42 1600.36 417.99 1600.36ZM390 1600.36C392.57 1600.36 394.66 1602.4599999999998 394.66 1605.04L394.66 1609.72L390 1609.72C387.42 1609.72 385.33 1607.6200000000001 385.33 1605.04C385.33 1602.46 387.41999999999996 1600.36 390 1600.36Z " fill="#af0707" fill-opacity="1" transform="matrix(1,0,0,1,-283,-1591)"></path><path id="SvgjsPath1162" d="M355 1669L355 1644L371 1644L371 1669Z " fill="#049dcc" fill-opacity="1" transform="matrix(1,0,0,1,-283,-1591)"></path><path id="SvgjsPath1163" d="M389 1669L389 1644L408 1644L408 1669Z " fill="#049dcc" fill-opacity="1" transform="matrix(1,0,0,1,-283,-1591)"></path><path id="SvgjsPath1164" d="M370.66 1637.72L370.66 1619C368.97 1619 367.32000000000005 1619 366 1619L352 1619L352 1643.96L355.11 1643.96L370.66 1643.96Z " fill="#e7001e" fill-opacity="1" transform="matrix(1,0,0,1,-283,-1591)"></path><path id="SvgjsPath1165" d="M389 1637.72L389 1643.96L407.66 1643.96L407.66 1619L393.67 1619C392.34000000000003 1619 390.69 1619 389 1619Z " fill="#e7001d" fill-opacity="1" transform="matrix(1,0,0,1,-283,-1591)"></path><path id="SvgjsPath1166" d="M408 1669L408 1644L461 1644L461 1669Z " fill="#0082aa" fill-opacity="1" transform="matrix(1,0,0,1,-283,-1591)"></path><path id="SvgjsPath1167" d="M408 1619L408 1643.96L460.87 1643.96L463.98 1643.96L463.98 1619Z " fill="#b50018" fill-opacity="1" transform="matrix(1,0,0,1,-283,-1591)"></path><path id="SvgjsPath1168" d="M379.33 1628L370 1637.36L370 1643.6L388.66 1643.6L388.66 1637.36Z " fill="#ff9811" fill-opacity="1" transform="matrix(1,0,0,1,-283,-1591)"></path><path id="SvgjsPath1169" d="M370 1669L370 1644L389 1644L389 1669Z " fill="#ffda44" fill-opacity="1" transform="matrix(1,0,0,1,-283,-1591)"></path><path id="SvgjsPath1170" d="M388.66 1637.72L388.66 1619C384.16 1619 379.33000000000004 1619 379.33000000000004 1619C379.33000000000004 1619 374.50000000000006 1619 370.00000000000006 1619L370.00000000000006 1637.72L379.33000000000004 1628.3600000000001Z " fill="#ddb708" fill-opacity="1" transform="matrix(1,0,0,1,-283,-1591)"></path><path id="SvgjsPath1171" d="M413.32 1619.08C415.01 1619.08 416.65999999999997 1619.08 417.99 1619.08C425.72 1619.08 431.98 1612.79 431.98 1605.04C431.98 1597.29 425.72 1591 417.99 1591C410.26 1591 403.99 1597.29 403.99 1605.04C403.99 1597.29 397.73 1591 390 1591C382.27 1591 376 1597.29 376 1605.04C376 1612.79 382.27 1619.08 390 1619.08C391.32 1619.08 392.97 1619.08 394.66 1619.08C399.16 1619.08 403.99 1619.08 403.99 1619.08C403.99 1619.08 408.82 1619.08 413.32 1619.08ZM417.99 1600.36C420.56 1600.36 422.65000000000003 1602.4599999999998 422.65000000000003 1605.04C422.65000000000003 1607.62 420.56000000000006 1609.72 417.99 1609.72L413.32 1609.72L413.32 1605.04C413.32 1602.46 415.42 1600.36 417.99 1600.36ZM390 1600.36C392.57 1600.36 394.66 1602.4599999999998 394.66 1605.04L394.66 1609.72L390 1609.72C387.42 1609.72 385.33 1607.6200000000001 385.33 1605.04C385.33 1602.46 387.41999999999996 1600.36 390 1600.36Z " fill="#af0707" fill-opacity="1" transform="matrix(1,0,0,1,-283,-1591)"></path><path id="SvgjsPath1172" d="M355 1669L355 1644L371 1644L371 1669Z " fill="#049dcc" fill-opacity="1" transform="matrix(1,0,0,1,-283,-1591)"></path><path id="SvgjsPath1173" d="M389 1669L389 1644L408 1644L408 1669Z " fill="#049dcc" fill-opacity="1" transform="matrix(1,0,0,1,-283,-1591)"></path><path id="SvgjsPath1174" d="M370.66 1637.72L370.66 1619C368.97 1619 367.32000000000005 1619 366 1619L352 1619L352 1643.96L355.11 1643.96L370.66 1643.96Z " fill="#e7001e" fill-opacity="1" transform="matrix(1,0,0,1,-283,-1591)"></path><path id="SvgjsPath1175" d="M389 1637.72L389 1643.96L407.66 1643.96L407.66 1619L393.67 1619C392.34000000000003 1619 390.69 1619 389 1619Z " fill="#e7001d" fill-opacity="1" transform="matrix(1,0,0,1,-283,-1591)"></path><path id="SvgjsPath1176" d="M408 1669L408 1644L461 1644L461 1669Z " fill="#0082aa" fill-opacity="1" transform="matrix(1,0,0,1,-283,-1591)"></path><path id="SvgjsPath1177" d="M408 1619L408 1643.96L460.87 1643.96L463.98 1643.96L463.98 1619Z " fill="#b50018" fill-opacity="1" transform="matrix(1,0,0,1,-283,-1591)"></path><path id="SvgjsPath1178" d="M379.33 1628L370 1637.36L370 1643.6L388.66 1643.6L388.66 1637.36Z " fill="#ff9811" fill-opacity="1" transform="matrix(1,0,0,1,-283,-1591)"></path><path id="SvgjsPath1179" d="M370 1669L370 1644L389 1644L389 1669Z " fill="#ffda44" fill-opacity="1" transform="matrix(1,0,0,1,-283,-1591)"></path><path id="SvgjsPath1180" d="M388.66 1637.72L388.66 1619C384.16 1619 379.33000000000004 1619 379.33000000000004 1619C379.33000000000004 1619 374.50000000000006 1619 370.00000000000006 1619L370.00000000000006 1637.72L379.33000000000004 1628.3600000000001Z " fill="#ddb708" fill-opacity="1" transform="matrix(1,0,0,1,-283,-1591)"></path><path id="SvgjsPath1181" d="M340.47 1637C339.94000000000005 1637 339.51000000000005 1637.42 339.51000000000005 1637.95L287.91 1637.95C287.91 1637.42 287.48 1637 286.96000000000004 1637C286.43000000000006 1637 286.00000000000006 1637.42 286.00000000000006 1637.95L286.00000000000006 1662.54C286.00000000000006 1665.1499999999999 288.14000000000004 1667.27 290.78000000000003 1667.27L336.65000000000003 1667.27C339.28000000000003 1667.27 341.42 1665.15 341.42 1662.54L341.42 1637.95C341.42 1637.42 341 1637 340.47 1637Z " fill="#049dcc" fill-opacity="1" transform="matrix(1,0,0,1,-283,-1591)"></path><path id="SvgjsPath1182" d="M340.34 1627L286.82 1627C284.71 1627 283 1628.7 283 1630.78L283 1636.46C283 1638.55 284.71 1640.24 286.82 1640.24L340.34 1640.24C342.44 1640.24 344.15999999999997 1638.55 344.15999999999997 1636.46L344.15999999999997 1630.78C344.15999999999997 1628.7 342.43999999999994 1627 340.34 1627Z " fill="#ffd100" fill-opacity="1" transform="matrix(1,0,0,1,-283,-1591)"></path><path id="SvgjsPath1183" d="M310 1668L310 1626L318 1626L318 1668Z " fill="#ff4f19" fill-opacity="1" transform="matrix(1,0,0,1,-283,-1591)"></path><path id="SvgjsPath1184" d="M310 1655.68L317.64 1663.24L317.64 1660.57L310 1653Z " fill="#e7001e" fill-opacity="1" transform="matrix(1,0,0,1,-283,-1591)"></path><path id="SvgjsPath1185" d="M310 1650.68L317.64 1658.24L317.64 1655.57L310 1648Z " fill="#e7001e" fill-opacity="1" transform="matrix(1,0,0,1,-283,-1591)"></path><path id="SvgjsPath1186" d="M317.64 1634.9L317.64 1632.23L311.34999999999997 1626L309.99999999999994 1626L309.99999999999994 1627.34Z " fill="#e7001e" fill-opacity="1" transform="matrix(1,0,0,1,-283,-1591)"></path><path id="SvgjsPath1187" d="M310 1645.68L317.64 1653.24L317.64 1650.57L310 1643Z " fill="#e7001e" fill-opacity="1" transform="matrix(1,0,0,1,-283,-1591)"></path><path id="SvgjsPath1188" d="M310 1658L310 1660.68L317.25 1667.8500000000001L317.64 1667.8500000000001L317.64 1665.5700000000002Z " fill="#e7001e" fill-opacity="1" transform="matrix(1,0,0,1,-283,-1591)"></path><path id="SvgjsPath1189" d="M310 1641.68L317.64 1649.24L317.64 1646.57L310 1639Z " fill="#e7001e" fill-opacity="1" transform="matrix(1,0,0,1,-283,-1591)"></path><path id="SvgjsPath1190" d="M310 1631.68L317.64 1639.24L317.64 1636.57L310 1629Z " fill="#e7001e" fill-opacity="1" transform="matrix(1,0,0,1,-283,-1591)"></path><path id="SvgjsPath1191" d="M315.17 1667.12L310 1662L310 1664.68L312.47 1667.1200000000001Z " fill="#e7001e" fill-opacity="1" transform="matrix(1,0,0,1,-283,-1591)"></path><path id="SvgjsPath1192" d="M310 1636.68L317.64 1644.24L317.64 1641.57L310 1634Z " fill="#e7001e" fill-opacity="1" transform="matrix(1,0,0,1,-283,-1591)"></path><path id="SvgjsPath1193" d="M325.42 1634.39C323.83000000000004 1631.6000000000001 322.19 1628.74 319.82 1627.5300000000002C324.32 1625.7900000000002 329.98 1623.39 331.67 1621.7200000000003C334.83000000000004 1618.5900000000001 334.83000000000004 1613.4900000000002 331.67 1610.3500000000004C328.5 1607.2200000000003 323.35 1607.2200000000003 320.18 1610.3500000000004C318.21 1612.3000000000004 315.24 1619.6000000000004 313.5 1624.1800000000003C311.76 1619.6000000000004 308.79 1612.3000000000002 306.82 1610.3500000000004C303.65 1607.2200000000003 298.5 1607.2200000000003 295.33 1610.3500000000004C292.16999999999996 1613.4900000000005 292.16999999999996 1618.5900000000004 295.33 1621.7200000000003C297.02 1623.3900000000003 302.68 1625.7900000000002 307.18 1627.5300000000002C304.81 1628.7400000000002 303.17 1631.6000000000001 301.58 1634.39C299.43 1638.16 297.21 1642.0500000000002 293.43 1642.0500000000002C292.64 1642.0500000000002 292 1642.6800000000003 292 1643.4700000000003C292 1644.2500000000002 292.64 1644.8900000000003 293.43 1644.8900000000003C298.88 1644.8900000000003 301.64 1640.0500000000004 304.08 1635.7900000000004C305.84999999999997 1632.6800000000005 307.52 1629.7500000000005 309.68 1629.7500000000005L309.68 1629.7600000000004L317.32 1629.7600000000004L317.32 1629.7500000000005C319.48 1629.7500000000005 321.15 1632.6800000000005 322.93 1635.7900000000004C325.36 1640.0500000000004 328.12 1644.8900000000003 333.57 1644.8900000000003C334.36 1644.8900000000003 335 1644.2500000000002 335 1643.4700000000003C335 1642.6800000000003 334.36 1642.0500000000002 333.57 1642.0500000000002C329.8 1642.0500000000002 327.57 1638.16 325.42 1634.39ZM325.92 1610.84C327.27000000000004 1610.84 328.62 1611.34 329.64000000000004 1612.36C331.69000000000005 1614.3899999999999 331.69000000000005 1617.6899999999998 329.64000000000004 1619.7199999999998C328.18000000000006 1621.1599999999999 321.31000000000006 1623.9799999999998 315.89000000000004 1625.9699999999998C317.90000000000003 1620.61 320.75000000000006 1613.7999999999997 322.21000000000004 1612.36C323.23 1611.34 324.58000000000004 1610.84 325.92 1610.84ZM301.08 1610.84C302.41999999999996 1610.84 303.77 1611.34 304.78999999999996 1612.36C306.24999999999994 1613.8 309.09999999999997 1620.61 311.11999999999995 1625.9699999999998C305.69999999999993 1623.9799999999998 298.81999999999994 1621.1599999999999 297.35999999999996 1619.7199999999998C295.30999999999995 1617.6899999999998 295.30999999999995 1614.3899999999999 297.35999999999996 1612.36C298.38999999999993 1611.34 299.72999999999996 1610.84 301.08 1610.84Z " fill="#e7001e" fill-opacity="1" transform="matrix(1,0,0,1,-283,-1591)"></path><path id="SvgjsPath1194" d="M413.32 1619.08C415.01 1619.08 416.65999999999997 1619.08 417.99 1619.08C425.72 1619.08 431.98 1612.79 431.98 1605.04C431.98 1597.29 425.72 1591 417.99 1591C410.26 1591 403.99 1597.29 403.99 1605.04C403.99 1597.29 397.73 1591 390 1591C382.27 1591 376 1597.29 376 1605.04C376 1612.79 382.27 1619.08 390 1619.08C391.32 1619.08 392.97 1619.08 394.66 1619.08C399.16 1619.08 403.99 1619.08 403.99 1619.08C403.99 1619.08 408.82 1619.08 413.32 1619.08ZM417.99 1600.36C420.56 1600.36 422.65000000000003 1602.4599999999998 422.65000000000003 1605.04C422.65000000000003 1607.62 420.56000000000006 1609.72 417.99 1609.72L413.32 1609.72L413.32 1605.04C413.32 1602.46 415.42 1600.36 417.99 1600.36ZM390 1600.36C392.57 1600.36 394.66 1602.4599999999998 394.66 1605.04L394.66 1609.72L390 1609.72C387.42 1609.72 385.33 1607.6200000000001 385.33 1605.04C385.33 1602.46 387.41999999999996 1600.36 390 1600.36Z " fill="#af0707" fill-opacity="1" transform="matrix(1,0,0,1,-283,-1591)"></path><path id="SvgjsPath1195" d="M355 1669L355 1644L371 1644L371 1669Z " fill="#049dcc" fill-opacity="1" transform="matrix(1,0,0,1,-283,-1591)"></path><path id="SvgjsPath1196" d="M389 1669L389 1644L408 1644L408 1669Z " fill="#049dcc" fill-opacity="1" transform="matrix(1,0,0,1,-283,-1591)"></path><path id="SvgjsPath1197" d="M370.66 1637.72L370.66 1619C368.97 1619 367.32000000000005 1619 366 1619L352 1619L352 1643.96L355.11 1643.96L370.66 1643.96Z " fill="#e7001e" fill-opacity="1" transform="matrix(1,0,0,1,-283,-1591)"></path><path id="SvgjsPath1198" d="M389 1637.72L389 1643.96L407.66 1643.96L407.66 1619L393.67 1619C392.34000000000003 1619 390.69 1619 389 1619Z " fill="#e7001d" fill-opacity="1" transform="matrix(1,0,0,1,-283,-1591)"></path><path id="SvgjsPath1199" d="M408 1669L408 1644L461 1644L461 1669Z " fill="#0082aa" fill-opacity="1" transform="matrix(1,0,0,1,-283,-1591)"></path><path id="SvgjsPath1200" d="M408 1619L408 1643.96L460.87 1643.96L463.98 1643.96L463.98 1619Z " fill="#b50018" fill-opacity="1" transform="matrix(1,0,0,1,-283,-1591)"></path><path id="SvgjsPath1201" d="M379.33 1628L370 1637.36L370 1643.6L388.66 1643.6L388.66 1637.36Z " fill="#ff9811" fill-opacity="1" transform="matrix(1,0,0,1,-283,-1591)"></path><path id="SvgjsPath1202" d="M370 1669L370 1644L389 1644L389 1669Z " fill="#ffda44" fill-opacity="1" transform="matrix(1,0,0,1,-283,-1591)"></path><path id="SvgjsPath1203" d="M388.66 1637.72L388.66 1619C384.16 1619 379.33000000000004 1619 379.33000000000004 1619C379.33000000000004 1619 374.50000000000006 1619 370.00000000000006 1619L370.00000000000006 1637.72L379.33000000000004 1628.3600000000001Z " fill="#ddb708" fill-opacity="1" transform="matrix(1,0,0,1,-283,-1591)"></path></svg>