<?xml version="1.0" encoding="utf-8"?>
<svg version="1.1" xmlns="http://www.w3.org/2000/svg" xmlns:xlink="http://www.w3.org/1999/xlink" x="0px" y="0px"
	 viewBox="0 0 1205 560" style="enable-background:new 0 0 1205 560;" xml:space="preserve">
<defs>
	<style type="text/css">
		.st0{fill:#5B5535;}
		.st1{fill:#FFFFFF;stroke:#444444;}
		.st2{fill:#FFFFFF;}
		.area {
			fill: #FFFFFF;
			stroke: #444444;
			stroke-dasharray: 4;
		}
		.areawithtext:hover {
			cursor: pointer;
		}
		.areawithtext:hover .area {
			fill: #00B9F1;
			stroke: #004F6A;
			stroke-dasharray: 0;
		}
		.areatext {
			fill: #1C1C1C;
			font-size: 15px;
			font-family: "Roboto", sans-serif;
		}
		.areawithtext:hover .areatext {
			fill: #FFFFFF;
		}
	</style>
</defs>
<g id="map">
	<title>Пустая карта</title>
	<desc>Created with Sketch.</desc>
	<g id="Карта">
		<g id="Desktop-HD" transform="translate(-117.000000, -223.000000)">
			<g id="Пустая-карта" transform="translate(118.000000, 223.000000)">
				<path id="Path-41" class="st0" d="M253,79.5c0,0-7,1-14,14c0,0-3.5,7-21.5,5c0,0-17.5,0.5-36.5,10s-29.5,5.5-41,12.5
					c0,0-4.5,14.5-17.5,10c0,0-33,9-66.5,15.5c0,0-18,6.5-27.5,11c0,0-7-0.5-9,4c0,0-11.5-2-18.5-2l9,24c0,0,7,8,35,5
					c0,0,9.5-0.5,17.5-8.5s45.5-5,45.5-5s28.5,1,44,38.5c0,0,8,8.5,24.5,11c0,0,5-0.5,5.5,12.5c0,0,5,14.5,20.5-6c0,0,5-1,9,0.5
					s18.5-9,18.5-9s46,18,42,50c0,0,0,15-6.5,23.5c0,0,0,38.5-31,45c0,0-10-2-9,10c0,0-6,6-10,7.5s-7.5,20-7.5,20s-4.5,41.5-41,52.5
					s-38,12-38,12s1.5,10.5-2.5,4.5c0,0-3.5,5.5-5-2.5c0,0-3.5-29-10-11.5s3,29,3,29s17.5,7,17.5,28c0,0,12-10,17.5,4.5
					s24.5-2.5,24.5-2.5s11.5-4,2.5,22.5s23,17.5,23,17.5s7.5,36.5,19,25L236,558c0,0,5-6.5,15-5.5s9-5.5,9-5.5s36.5,0.5,51.5,10
					s43-9.5,43-9.5s14-13.5,32.5-11s21.5-16.5,21.5-16.5s-3.5-17,33.5-28c0,0,24,10,28.5-6s13.5-17.5,13.5-17.5s13-4.5,17.5,2.5
					c4.5,7,8-16,8-16s5-5,7-14.5S528,421,528,421s24.5-48.5,100.5-55.5c0,0,36.5-17,57-12.5s33.5-1.5,33.5-1.5s6.5-16,24-6
					c0,0,21.5-5,27,13s37-24.5,37-24.5s-10-19.5,7.5-19.5S831,312,831,312s15.5-10.5,7-16.5s13-3,13-3s11-7,22.5,3s9-33,9-33
					s-29.5,1-1-8c0,0,16.5-36.5,127,16l15,16c0,0,7.5-14.5,34-7.5c0,0,6.5,4,9.5-9s42-2,42-2s42.5,10,40.5-3.5c0,0,14.5-11,36.5-8
					c0,0,23-20.5,15.5-32c0,0-17.5,18.5-24.5,3.5c0,0-15.5,1-16.5-26.5c0,0-3-6,3-14.5c0,0,3.5-3.5-8-6.5s-6-18-6-18s24,13,36.5,5.5
					s9-18,9-18l-43.5-3.5c0,0-16,8-20.5,3s-10.5,2.5-10.5,2.5s-3.5,5.5-18.5-3.5s-17.5-2-17.5-2s-54,2-63,10c0,0,13,11.5,0,13.5
					s-34.5,10-63-17.5c0,0-11-12.5-15.5,9.5c0,0-5,5.5-7.5,6c0,0,5.5,3,1,9c0,0,3,5-8,6.5s-40.5,6-48,14c0,0-18-3-20-6
					s5.5,18.5-16,13.5c0,0-18.5-6.5-20.5-8.5s-38-5-50-14.5c0,0-21,16-46.5-18.5c0,0-2.5-4-6.5-1c0,0-2.5-4.5,6-7
					c0,0,20.5-1.5,16.5-11c0,0,7.5-17.5-3-20c0,0-19.5-4-20.5-7.5c0,0-7-8-15.5-6.5c0,0-1.5-3-1.5-6s-9-1-9-1s-13,3-24.5-8.5
					c0,0,0.5-1.5,3-2.5c0,0-13-1-16,2s-22,0.5-22,0.5s12-8,12.5-13.5c0,0,1.5-5-10.5-4.5s-17,4-17,4s19-16,7.5-16
					s-29.5,13.5-29.5,13.5s-19,8-27,4c0,0,15.5-0.5,19-6.5s8-10.5,8-10.5s6-2,8.5,0s0-4.5,0-4.5s3-3,5-3s-2-4.5-2-4.5l-25,13
					l-20.5-5c0,0-9.5,4.5-0.5-6c0,0,4.5-2.5-5.5-4.5c0,0-0.5-9.5-12-10c0,0-4.5,0-5,7s-13-5.5-13-5.5s-4-1.5-7.5,2
					c0,0,1.5-7.5-18.5-6.5c0,0-10.5,4.5-15,1.5s-7-9-7-9s-8-7.5-23.5,4.5s-13,0-13,0s1-7.5-13.5-6c0,0-5.5,0.5-9.5-5.5
					S389.5,4,389.5,4S394,14.5,377,23.5c0,0-11,24.5,4.5,31c0,0,12.5,4.5,20.5,2.5c0,0,9,5-3,2.5c0,0-13.5,4.5-16.5,3s-1.5,8-1.5,8
					s3.5,8-16-6.5c0,0-7.5-3-18,11.5c0,0-12.5,0.5-16-4.5c0,0-4.5,7.5-12,5.5s-17.5,4-17.5,4S246.5,103.5,253,79.5z"/>
				<path id="Path-41_1_" class="st1" d="M253,59.5c0,0-7,1-14,14c0,0-3.5,7-21.5,5c0,0-17.5,0.5-36.5,10S151.5,94,140,101
					c0,0-4.5,14.5-17.5,10c0,0-33,9-66.5,15.5c0,0-18,6.5-27.5,11c0,0-7-0.5-9,4c0,0-7.5,6.5-14.5,6.5c0,0-3,2.5,4.5,5L1,158.5
					c0,0-5,3.5,9,5c0,0,7,8,35,5c0,0,9.5-0.5,17.5-8.5s45.5-5,45.5-5s28.5,1,44,38.5c0,0,8,8.5,24.5,11c0,0,5-0.5,5.5,12.5
					c0,0,5,14.5,20.5-6c0,0,5-1,9,0.5s18.5-9,18.5-9s46,18,42,50c0,0,0,15-6.5,23.5c0,0,0,38.5-31,45c0,0-10-2-9,10c0,0-6,6-10,7.5
					s-7.5,20-7.5,20s-4.5,41.5-41,52.5s-38,12-38,12s1.5,10.5-2.5,4.5c0,0-3.5,5.5-5-2.5c0,0-7-3-9.5,2.5s2.5,15,2.5,15
					s17.5,7,17.5,28c0,0,12-10,17.5,4.5s24.5-2.5,24.5-2.5s18,4.5,9,31s22,11.5,22,11.5s2,34,13.5,22.5L236,538c0,0,5-6.5,15-5.5
					s9-5.5,9-5.5s36.5,0.5,51.5,10s43-9.5,43-9.5s14-13.5,32.5-11s16-12,16-12s2-21.5,39-32.5c0,0,24,10,28.5-6s13.5-17.5,13.5-17.5
					s9-2,13.5,5s2.5-14,2.5-14s14.5-9.5,16.5-19S528,401,528,401s24.5-48.5,100.5-55.5c0,0,36.5-17,57-12.5s33.5-1.5,33.5-1.5
					s6.5-16,24-6c0,0,21.5-5,27,13s27.5-10.5,27.5-10.5s-8-30,9.5-30s24-6,24-6s4-7-4.5-13s16-3.5,16-3.5s15.5-1.5,27,8.5s-5-9-5-9
					s-11.5-11.5,12-11.5s-12-9.5-12-9.5s-11.5-10.5,17-19.5c0,0,16.5-36.5,127,16l15,16c0,0,7.5-14.5,34-7.5c0,0,6.5,4,9.5-9
					s42-2,42-2s42.5,10,40.5-3.5c0,0,19-6.5,41-3.5c0,0,18-5,10.5-16.5c0,0-17-1.5-24-16.5c0,0-15.5,1-16.5-26.5c0,0-3-6,3-14.5
					c0,0,3.5-3.5-8-6.5s8-8,8-8s14,10.5,26.5,3s-2.5-11-2.5-11s-10-1-15.5-9.5s-14,2-14,2s-22.5-2.5-27-7.5s-10.5,2.5-10.5,2.5
					s-3.5,5.5-18.5-3.5s-17.5-2-17.5-2s-54,2-63,10c0,0,13,11.5,0,13.5s-34.5,10-63-17.5c0,0-11-12.5-15.5,9.5c0,0-5,5.5-7.5,6
					c0,0,5.5,3,1,9c0,0,3,5-8,6.5s-40.5,6-48,14c0,0-18-3-20-6s5.5,18.5-16,13.5c0,0-18.5-6.5-20.5-8.5s-38-5-50-14.5
					c0,0-21,16-46.5-18.5c0,0-2.5-4-6.5-1c0,0-2.5-4.5,6-7c0,0,20.5-1.5,16.5-11c0,0-7.5-15.5-18-18c0,0-4.5-6-5.5-9.5
					c0,0-7-8-15.5-6.5c0,0-1.5-3-1.5-6s-9-1-9-1s-13,3-24.5-8.5c0,0,0.5-1.5,3-2.5c0,0-13-1-16,2s-22,0.5-22,0.5s12-8,12.5-13.5
					c0,0,1.5-5-10.5-4.5s-17,4-17,4s2-10,17.5-11s5-7.5,5-7.5s-3.5,2.5-15,2.5s-29.5,13.5-29.5,13.5s-19,8-27,4c0,0,15.5-0.5,19-6.5
					s8-10.5,8-10.5s6-2,8.5,0s0-4.5,0-4.5s3-3,5-3s-2-4.5-2-4.5l-11-6c0,0,13.5-7.5,16-12.5s-6.5-11.5-6.5-11.5s-4-2-5,10.5
					c0,0-5,8.5-10-6c0,0-1.5-6-17-1.5c0,0-8.5,1-11.5-1.5s-2,9-2,9s2,8.5,6.5,13c0,0,3.5-11,5-3s1.5,9.5,1.5,9.5s6-15,18,0
					c0,0,2.5,4-3.5,6s-5.5,7-5.5,7s-5,5-6-3.5s-14.5-1.5-14.5-1.5s-9.5,4.5-0.5-6c0,0,4.5-2.5-5.5-4.5c0,0-0.5-9.5-12-10
					c0,0-4.5,0-5,7s-13-5.5-13-5.5s-4-1.5-7.5,2c0,0,1.5-7.5-18.5-6.5c0,0-10.5,4.5-15,1.5s-7-9-7-9S471.5,3,456,15s-13,0-13,0
					s1-7.5-13.5-6c0,0-5.5,0.5-9.5-5.5S385,4,385,4s10.5,9-6.5,18c0,0-12.5,6,3,12.5c0,0,12.5,4.5,20.5,2.5c0,0,9,5-3,2.5
					c0,0-13.5,4.5-16.5,3s-1.5,8-1.5,8s3.5,8-16-6.5c0,0-7.5-3-18,11.5c0,0-12.5,0.5-16-4.5c0,0-4.5,7.5-12,5.5s-17.5,4-17.5,4
					S246.5,83.5,253,59.5z"/>
			</g>
		</g>
	</g>
</g>
<g id="east">
	<g id="Карта_1_">
		<g id="Desktop-HD_1_" transform="translate(-44.000000, -2640.000000)">
			<g class="areawithtext" transform="translate(44.000000, 2640.000000)">
				<path id="Combined-Shape" class="area" d="M769.3,333.1c0.8,1.3,1.4,2.8,1.9,4.4c5.5,18,27.5-10.5,27.5-10.5s-8-30,9.5-30
					s24-6,24-6s4-7-4.5-13s16-3.5,16-3.5s15.5-1.5,27,8.5s-5-9-5-9s-11.5-11.5,12-11.5s-12-9.5-12-9.5s-11.5-10.5,17-19.5
					c0,0,16.5-36.5,127,16l15,16c0,0,7.5-14.5,34-7.5c0,0,6.5,4,9.5-9s42-2,42-2s42.5,10,40.5-3.5c0,0,19-6.5,41-3.5
					c0,0,18-5,10.5-16.5c0,0-17-1.5-24-16.5c0,0-15.5,1-16.5-26.5c0,0-3-6,3-14.5c0,0,3.5-3.5-8-6.5s8-8,8-8s14,10.5,26.5,3
					s-2.5-11-2.5-11s-10-1-15.5-9.5s-14,2-14,2s-22.5-2.5-27-7.5s-10.5,2.5-10.5,2.5s-3.5,5.5-18.5-3.5s-17.5-2-17.5-2s-54,2-63,10
					c0,0,13,11.5,0,13.5c-13,2-34.5,10-63-17.5c0,0-11-12.5-15.5,9.5c0,0-5,5.5-7.5,6c0,0,5.5,3,1,9c0,0,3,5-8,6.5s-40.5,6-48,14
					c0,0-10.2-1.7-16.1-3.8c-1.4,1.1-2.8,2.1-4.2,3.1c-0.4,4.6-2.7,10.2-13,8.7C765.9,236.5,768.6,322.3,769.3,333.1z"/>
				<text transform="matrix(1 0 0 1 950.2165 203)" class="areatext">Восточное побережье</text>
			</g>
		</g>
	</g>
</g>
<g id="south">
	<g id="Карта_2_">
		<g id="Desktop-HD_2_" transform="translate(-62.000000, -2193.000000)">
			<g class="areawithtext" transform="translate(62.000000, 2194.000000)">
				<path id="Combined-Shape_1_" class="area" d="M770.1,329.2c0,0.7,0,1.4,0,2.1c-8-10.5-24.1-6.8-24.1-6.8c-17.6-10-24.2,6-24.2,6
					s-13.1,6-33.8,1.5s-57.5,12.5-57.5,12.5c-76.6,7-101.3,55.5-101.3,55.5s-9.6,10-11.6,19.5s-16.6,19-16.6,19s2,21-2.5,14
					s-13.6-5-13.6-5s-9.1,1.5-13.6,17.5s-28.7,6-28.7,6c-37.3,11-39.3,32.5-39.3,32.5s2.5,14.5-16.1,12s-32.8,11-32.8,11
					s-28.2,19-43.3,9.5c-15.1-9.5-51.9-10-51.9-10s1,6.5-9.1,5.5S235,537,235,537l-17.6-0.5c-2,2-3.7,2.6-5.2,2.3l0.1-2.3
					c0,0,13.6-20.4,33.2-28c0.1,0.2,0.1,0.3,0.1,0.5c0.5,3-5-3.5,37.8-6.5S400.7,461,400.7,461s76.1-40,108.4-88
					c0,0,24.2-54.5,110.9-72.5c0,0,60.5-12,127.5,11C747.4,311.5,766.4,319.6,770.1,329.2z"/>
				<text transform="matrix(0.8713 -0.499 0.503 0.8643 351.688 509.6184)" class="areatext">Южный берег Крыма</text>
			</g>
		</g>
	</g>
</g>
<g id="west">
	<g id="Карта_3_">
		<g id="Desktop-HD_3_" transform="translate(-118.000000, -1493.000000)">
			<g class="areawithtext" transform="translate(119.000000, 1493.000000)">
				<path id="Combined-Shape_2_" class="area" d="M380.9,49.6L380.9,49.6c0,0,3.5,8-16-6.5c0,0-7.5-3-18,11.5c0,0-12.5,0.5-16-4.5
					c0,0-4.5,7.5-12,5.5s-17.5,4-17.5,4s-55,23-48.5-1c0,0-7,1-14,14c0,0-3.5,7-21.5,5c0,0-17.5,0.5-36.5,10s-29.5,5.5-41,12.5
					c0,0-4.5,14.5-17.5,10c0,0-33,9-66.5,15.5c0,0-18,6.5-27.5,11c0,0-7-0.5-9,4c0,0-7.5,6.5-14.5,6.5c0,0-3,2.5,4.5,5l-8.5,5.5
					c0,0-5,3.5,9,5c0,0,7,8,35,5c0,0,9.5-0.5,17.5-8.5s45.5-5,45.5-5s28.5,1,44,38.5c0,0,8,8.5,24.5,11c0,0,5-0.5,5.5,12.5
					c0,0,5,14.5,20.5-6c0,0,5-1,9,0.5s18.5-9,18.5-9s46,18,42,50c0,0,0,15-6.5,23.5c0,0,0,38.5-31,45c0,0-10-2-9,10c0,0-6,6-10,7.5
					s-7.5,20-7.5,20s-4.5,41.5-41,52.5s-38,12-38,12s1.5,10.5-2.5,4.5c0,0-3.5,5.5-5-2.5c0,0-7-3-9.5,2.5s2.5,15,2.5,15
					s17.5,7,17.5,28c0,0,12-10,17.5,4.5s24.5-2.5,24.5-2.5s18,4.5,9,31c-9,26.5,22,11.5,22,11.5s1.4,23.2,8.3,24.8l0.2-2.3
					c0,0,10.8-21.2,35.9-29.3c3-2.8,7.2-10.7-5.4-29.7c-17-25.5-37.5-37.5-37.5-37.5s-5.5-4-7.5-4s-6-3.5-4.5-5.5s-0.5-4,18.5-18
					s28.5-12.5,59-51.5c0,0,24-30.5,35.5-63c0,0,4-9.5,4-40.5s-7-105-135.5-118.5c0,0,181-31.5,205.5-88.5L380.9,49.6z"/>
				<text transform="matrix(0.9744 -0.225 0.225 0.9744 93.3146 141.7338)" class="areatext">Западное побережье</text>
			</g>
		</g>
	</g>
</g>
<g id="mountain">
	<g id="Карта_4_">
		<g id="Desktop-HD_4_" transform="translate(-66.000000, -1025.000000)">
			<g class="areawithtext" transform="translate(67.000000, 1026.000000)">
				<path id="Path-38" class="area" d="M281.7,502.9c42.7-3,117.2-41.5,117.2-41.5s75.9-40,108.1-88c0,0,24.1-54.5,110.6-72.5
					c0,0,60.3-12,127.2,11c0,0,22.1,9.5,23.1,20c0,0-2.5-31.5,15.1-73c0,0-144.3-67-263.5-69.5c0,0-131.7-12.5-210.7,69
					c0,0,6,36-26.1,84.5s-51.3,55-51.3,55s-41.7,25.5-41.7,35.5c0,0,27.7,11,42.2,44.5c0,0,11.6,28.5,12.1,31.5
					C244.5,512.4,239,505.9,281.7,502.9z"/>
				<text transform="matrix(1.0056 0 0 1 379.0464 323.7314)" class="areatext">Горный Крым</text>
			</g>
		</g>
	</g>
</g>
</svg>
